<mxfile host="Electron" agent="Mozilla/5.0 (Windows NT 10.0; Win64; x64) AppleWebKit/537.36 (KHTML, like Gecko) draw.io/26.2.2 Chrome/134.0.6998.178 Electron/35.1.2 Safari/537.36" version="26.2.2" pages="3">
  <diagram name="linux进程" id="ybnlH0JiNTfmTyi-huAb">
    <mxGraphModel dx="985" dy="580" grid="1" gridSize="10" guides="1" tooltips="1" connect="1" arrows="1" fold="1" page="1" pageScale="1" pageWidth="827" pageHeight="1169" math="0" shadow="0">
      <root>
        <mxCell id="0" />
        <mxCell id="1" parent="0" />
        <mxCell id="WdyAgNhW-mXzaDmg8RnA-8" style="rounded=0;orthogonalLoop=1;jettySize=auto;html=1;exitX=1;exitY=1;exitDx=0;exitDy=0;" edge="1" parent="1" source="WdyAgNhW-mXzaDmg8RnA-1" target="WdyAgNhW-mXzaDmg8RnA-4">
          <mxGeometry relative="1" as="geometry" />
        </mxCell>
        <mxCell id="WdyAgNhW-mXzaDmg8RnA-1" value="&lt;font face=&quot;Verdana&quot;&gt;运行&lt;/font&gt;" style="ellipse;whiteSpace=wrap;html=1;fontFamily=Georgia;fillColor=#dae8fc;strokeColor=#6c8ebf;" vertex="1" parent="1">
          <mxGeometry x="330" y="30" width="100" height="66.67" as="geometry" />
        </mxCell>
        <mxCell id="WdyAgNhW-mXzaDmg8RnA-3" value="&lt;font face=&quot;Verdana&quot;&gt;就绪&lt;/font&gt;" style="ellipse;whiteSpace=wrap;html=1;fontFamily=Georgia;fillColor=#fff2cc;strokeColor=#d6b656;" vertex="1" parent="1">
          <mxGeometry x="230" y="130" width="100" height="66.67" as="geometry" />
        </mxCell>
        <mxCell id="WdyAgNhW-mXzaDmg8RnA-4" value="&lt;font face=&quot;Verdana&quot;&gt;阻塞&lt;/font&gt;" style="ellipse;whiteSpace=wrap;html=1;fontFamily=Georgia;fillColor=#f8cecc;strokeColor=#b85450;" vertex="1" parent="1">
          <mxGeometry x="430" y="130" width="100" height="66.67" as="geometry" />
        </mxCell>
        <mxCell id="WdyAgNhW-mXzaDmg8RnA-5" value="" style="endArrow=classic;html=1;rounded=0;entryX=0;entryY=1;entryDx=0;entryDy=0;" edge="1" parent="1" target="WdyAgNhW-mXzaDmg8RnA-1">
          <mxGeometry width="50" height="50" relative="1" as="geometry">
            <mxPoint x="290" y="130" as="sourcePoint" />
            <mxPoint x="320" y="70" as="targetPoint" />
          </mxGeometry>
        </mxCell>
        <mxCell id="WdyAgNhW-mXzaDmg8RnA-6" value="" style="endArrow=classic;html=1;rounded=0;exitX=0;exitY=0.5;exitDx=0;exitDy=0;entryX=1;entryY=0.5;entryDx=0;entryDy=0;" edge="1" parent="1" source="WdyAgNhW-mXzaDmg8RnA-4" target="WdyAgNhW-mXzaDmg8RnA-3">
          <mxGeometry width="50" height="50" relative="1" as="geometry">
            <mxPoint x="314.4" y="284" as="sourcePoint" />
            <mxPoint x="380.4" y="220" as="targetPoint" />
          </mxGeometry>
        </mxCell>
        <mxCell id="WdyAgNhW-mXzaDmg8RnA-7" style="rounded=0;orthogonalLoop=1;jettySize=auto;html=1;exitX=0.279;exitY=0.972;exitDx=0;exitDy=0;exitPerimeter=0;" edge="1" parent="1" source="WdyAgNhW-mXzaDmg8RnA-1" target="WdyAgNhW-mXzaDmg8RnA-3">
          <mxGeometry relative="1" as="geometry" />
        </mxCell>
        <mxCell id="WdyAgNhW-mXzaDmg8RnA-9" value="调度" style="text;html=1;align=center;verticalAlign=middle;whiteSpace=wrap;rounded=0;" vertex="1" parent="1">
          <mxGeometry x="280" y="90" width="30" height="20" as="geometry" />
        </mxCell>
        <mxCell id="WdyAgNhW-mXzaDmg8RnA-10" value="时间片到" style="text;html=1;align=center;verticalAlign=middle;whiteSpace=wrap;rounded=0;" vertex="1" parent="1">
          <mxGeometry x="340" y="120" width="50" height="20" as="geometry" />
        </mxCell>
        <mxCell id="WdyAgNhW-mXzaDmg8RnA-11" value="等待事件(如IO事件)" style="text;html=1;align=center;verticalAlign=middle;whiteSpace=wrap;rounded=0;" vertex="1" parent="1">
          <mxGeometry x="433" y="90" width="130" height="20" as="geometry" />
        </mxCell>
        <mxCell id="WdyAgNhW-mXzaDmg8RnA-12" value="事件就绪" style="text;html=1;align=center;verticalAlign=middle;whiteSpace=wrap;rounded=0;" vertex="1" parent="1">
          <mxGeometry x="310" y="176.67" width="130" height="20" as="geometry" />
        </mxCell>
        <mxCell id="WdyAgNhW-mXzaDmg8RnA-13" value="&lt;font style=&quot;color: rgb(255, 78, 34);&quot;&gt;进程的三态模型&lt;/font&gt;" style="text;html=1;align=center;verticalAlign=middle;whiteSpace=wrap;rounded=0;" vertex="1" parent="1">
          <mxGeometry x="315" y="220" width="130" height="20" as="geometry" />
        </mxCell>
        <mxCell id="WdyAgNhW-mXzaDmg8RnA-14" style="rounded=0;orthogonalLoop=1;jettySize=auto;html=1;exitX=1;exitY=1;exitDx=0;exitDy=0;" edge="1" source="WdyAgNhW-mXzaDmg8RnA-15" target="WdyAgNhW-mXzaDmg8RnA-17" parent="1">
          <mxGeometry relative="1" as="geometry" />
        </mxCell>
        <mxCell id="WdyAgNhW-mXzaDmg8RnA-37" style="edgeStyle=orthogonalEdgeStyle;rounded=0;orthogonalLoop=1;jettySize=auto;html=1;exitX=1;exitY=0.5;exitDx=0;exitDy=0;" edge="1" parent="1" source="WdyAgNhW-mXzaDmg8RnA-15" target="WdyAgNhW-mXzaDmg8RnA-34">
          <mxGeometry relative="1" as="geometry" />
        </mxCell>
        <mxCell id="WdyAgNhW-mXzaDmg8RnA-41" value="进程终止/进程退出" style="edgeLabel;html=1;align=center;verticalAlign=middle;resizable=0;points=[];" vertex="1" connectable="0" parent="WdyAgNhW-mXzaDmg8RnA-37">
          <mxGeometry x="-0.2434" y="-1" relative="1" as="geometry">
            <mxPoint as="offset" />
          </mxGeometry>
        </mxCell>
        <mxCell id="WdyAgNhW-mXzaDmg8RnA-42" style="edgeStyle=orthogonalEdgeStyle;rounded=0;orthogonalLoop=1;jettySize=auto;html=1;exitX=0;exitY=0;exitDx=0;exitDy=0;entryX=0;entryY=0;entryDx=0;entryDy=0;dashed=1;" edge="1" parent="1" source="WdyAgNhW-mXzaDmg8RnA-15" target="WdyAgNhW-mXzaDmg8RnA-25">
          <mxGeometry relative="1" as="geometry">
            <Array as="points">
              <mxPoint x="210" y="310" />
              <mxPoint x="210" y="540" />
            </Array>
          </mxGeometry>
        </mxCell>
        <mxCell id="WdyAgNhW-mXzaDmg8RnA-44" value="挂起" style="edgeLabel;html=1;align=center;verticalAlign=middle;resizable=0;points=[];" vertex="1" connectable="0" parent="WdyAgNhW-mXzaDmg8RnA-42">
          <mxGeometry x="-0.0534" y="-1" relative="1" as="geometry">
            <mxPoint as="offset" />
          </mxGeometry>
        </mxCell>
        <mxCell id="WdyAgNhW-mXzaDmg8RnA-15" value="&lt;font face=&quot;Verdana&quot;&gt;运行&lt;/font&gt;" style="ellipse;whiteSpace=wrap;html=1;fontFamily=Georgia;fillColor=#dae8fc;strokeColor=#6c8ebf;" vertex="1" parent="1">
          <mxGeometry x="330" y="300" width="100" height="66.67" as="geometry" />
        </mxCell>
        <mxCell id="WdyAgNhW-mXzaDmg8RnA-16" value="&lt;font face=&quot;Verdana&quot;&gt;就绪&lt;/font&gt;" style="ellipse;whiteSpace=wrap;html=1;fontFamily=Georgia;fillColor=#fff2cc;strokeColor=#d6b656;" vertex="1" parent="1">
          <mxGeometry x="230" y="400" width="100" height="66.67" as="geometry" />
        </mxCell>
        <mxCell id="WdyAgNhW-mXzaDmg8RnA-17" value="&lt;font face=&quot;Verdana&quot;&gt;阻塞&lt;/font&gt;" style="ellipse;whiteSpace=wrap;html=1;fontFamily=Georgia;fillColor=#f8cecc;strokeColor=#b85450;" vertex="1" parent="1">
          <mxGeometry x="430" y="400" width="100" height="66.67" as="geometry" />
        </mxCell>
        <mxCell id="WdyAgNhW-mXzaDmg8RnA-18" value="" style="endArrow=classic;html=1;rounded=0;entryX=0;entryY=1;entryDx=0;entryDy=0;" edge="1" target="WdyAgNhW-mXzaDmg8RnA-15" parent="1">
          <mxGeometry width="50" height="50" relative="1" as="geometry">
            <mxPoint x="290" y="400" as="sourcePoint" />
            <mxPoint x="320" y="340" as="targetPoint" />
          </mxGeometry>
        </mxCell>
        <mxCell id="WdyAgNhW-mXzaDmg8RnA-19" value="" style="endArrow=classic;html=1;rounded=0;exitX=0;exitY=0.5;exitDx=0;exitDy=0;entryX=1;entryY=0.5;entryDx=0;entryDy=0;" edge="1" source="WdyAgNhW-mXzaDmg8RnA-17" target="WdyAgNhW-mXzaDmg8RnA-16" parent="1">
          <mxGeometry width="50" height="50" relative="1" as="geometry">
            <mxPoint x="314.4" y="554" as="sourcePoint" />
            <mxPoint x="380.4" y="490" as="targetPoint" />
          </mxGeometry>
        </mxCell>
        <mxCell id="WdyAgNhW-mXzaDmg8RnA-20" style="rounded=0;orthogonalLoop=1;jettySize=auto;html=1;exitX=0.279;exitY=0.972;exitDx=0;exitDy=0;exitPerimeter=0;" edge="1" source="WdyAgNhW-mXzaDmg8RnA-15" target="WdyAgNhW-mXzaDmg8RnA-16" parent="1">
          <mxGeometry relative="1" as="geometry" />
        </mxCell>
        <mxCell id="WdyAgNhW-mXzaDmg8RnA-21" value="调度" style="text;html=1;align=center;verticalAlign=middle;whiteSpace=wrap;rounded=0;" vertex="1" parent="1">
          <mxGeometry x="280" y="360" width="30" height="20" as="geometry" />
        </mxCell>
        <mxCell id="WdyAgNhW-mXzaDmg8RnA-22" value="时间片到" style="text;html=1;align=center;verticalAlign=middle;whiteSpace=wrap;rounded=0;" vertex="1" parent="1">
          <mxGeometry x="340" y="390" width="50" height="20" as="geometry" />
        </mxCell>
        <mxCell id="WdyAgNhW-mXzaDmg8RnA-23" value="等待事件(如IO事件)" style="text;html=1;align=center;verticalAlign=middle;whiteSpace=wrap;rounded=0;" vertex="1" parent="1">
          <mxGeometry x="433" y="360" width="130" height="20" as="geometry" />
        </mxCell>
        <mxCell id="WdyAgNhW-mXzaDmg8RnA-24" value="事件就绪" style="text;html=1;align=center;verticalAlign=middle;whiteSpace=wrap;rounded=0;" vertex="1" parent="1">
          <mxGeometry x="310" y="446.66999999999996" width="130" height="20" as="geometry" />
        </mxCell>
        <mxCell id="WdyAgNhW-mXzaDmg8RnA-25" value="&lt;font face=&quot;Verdana&quot;&gt;就绪挂起&lt;/font&gt;" style="ellipse;whiteSpace=wrap;html=1;fontFamily=Georgia;fillColor=light-dark(#dddcda, #281d00);strokeColor=#d6b656;" vertex="1" parent="1">
          <mxGeometry x="230" y="530" width="100" height="66.67" as="geometry" />
        </mxCell>
        <mxCell id="WdyAgNhW-mXzaDmg8RnA-26" value="&lt;font face=&quot;Verdana&quot;&gt;阻塞挂起&lt;/font&gt;" style="ellipse;whiteSpace=wrap;html=1;fontFamily=Georgia;fillColor=light-dark(#cdcccb, #512d2b);strokeColor=#b85450;" vertex="1" parent="1">
          <mxGeometry x="430" y="530" width="100" height="66.67" as="geometry" />
        </mxCell>
        <mxCell id="WdyAgNhW-mXzaDmg8RnA-27" value="" style="endArrow=classic;html=1;rounded=0;exitX=0;exitY=0.5;exitDx=0;exitDy=0;entryX=1;entryY=0.5;entryDx=0;entryDy=0;" edge="1" source="WdyAgNhW-mXzaDmg8RnA-26" target="WdyAgNhW-mXzaDmg8RnA-25" parent="1">
          <mxGeometry width="50" height="50" relative="1" as="geometry">
            <mxPoint x="314.4" y="684" as="sourcePoint" />
            <mxPoint x="380.4" y="620" as="targetPoint" />
          </mxGeometry>
        </mxCell>
        <mxCell id="WdyAgNhW-mXzaDmg8RnA-29" value="事件就绪" style="text;html=1;align=center;verticalAlign=middle;whiteSpace=wrap;rounded=0;" vertex="1" parent="1">
          <mxGeometry x="310" y="576.67" width="130" height="20" as="geometry" />
        </mxCell>
        <mxCell id="WdyAgNhW-mXzaDmg8RnA-30" value="" style="endArrow=classic;startArrow=classic;html=1;rounded=0;entryX=0.5;entryY=1;entryDx=0;entryDy=0;" edge="1" parent="1" source="WdyAgNhW-mXzaDmg8RnA-25" target="WdyAgNhW-mXzaDmg8RnA-16">
          <mxGeometry width="50" height="50" relative="1" as="geometry">
            <mxPoint x="230" y="520" as="sourcePoint" />
            <mxPoint x="280" y="470" as="targetPoint" />
          </mxGeometry>
        </mxCell>
        <mxCell id="WdyAgNhW-mXzaDmg8RnA-31" value="" style="endArrow=classic;startArrow=classic;html=1;rounded=0;entryX=0.5;entryY=1;entryDx=0;entryDy=0;" edge="1" parent="1">
          <mxGeometry width="50" height="50" relative="1" as="geometry">
            <mxPoint x="479.65999999999997" y="530" as="sourcePoint" />
            <mxPoint x="479.65999999999997" y="467" as="targetPoint" />
          </mxGeometry>
        </mxCell>
        <mxCell id="WdyAgNhW-mXzaDmg8RnA-32" value="内存 &amp;lt;==&amp;gt; 外存" style="text;html=1;align=center;verticalAlign=middle;whiteSpace=wrap;rounded=0;" vertex="1" parent="1">
          <mxGeometry x="305" y="500" width="150" height="30" as="geometry" />
        </mxCell>
        <mxCell id="WdyAgNhW-mXzaDmg8RnA-35" style="edgeStyle=orthogonalEdgeStyle;rounded=0;orthogonalLoop=1;jettySize=auto;html=1;exitX=1;exitY=0.5;exitDx=0;exitDy=0;" edge="1" parent="1" source="WdyAgNhW-mXzaDmg8RnA-33" target="WdyAgNhW-mXzaDmg8RnA-16">
          <mxGeometry relative="1" as="geometry" />
        </mxCell>
        <mxCell id="WdyAgNhW-mXzaDmg8RnA-38" value="进入就绪队列" style="edgeLabel;html=1;align=center;verticalAlign=middle;resizable=0;points=[];" vertex="1" connectable="0" parent="WdyAgNhW-mXzaDmg8RnA-35">
          <mxGeometry x="-0.1191" y="1" relative="1" as="geometry">
            <mxPoint as="offset" />
          </mxGeometry>
        </mxCell>
        <mxCell id="WdyAgNhW-mXzaDmg8RnA-39" style="rounded=0;orthogonalLoop=1;jettySize=auto;html=1;exitX=0.5;exitY=1;exitDx=0;exitDy=0;entryX=0;entryY=0.5;entryDx=0;entryDy=0;dashed=1;" edge="1" parent="1" source="WdyAgNhW-mXzaDmg8RnA-33" target="WdyAgNhW-mXzaDmg8RnA-25">
          <mxGeometry relative="1" as="geometry" />
        </mxCell>
        <mxCell id="WdyAgNhW-mXzaDmg8RnA-40" value="如果物理内存紧张&lt;br&gt;则进入就绪挂起" style="edgeLabel;html=1;align=center;verticalAlign=middle;resizable=0;points=[];" vertex="1" connectable="0" parent="WdyAgNhW-mXzaDmg8RnA-39">
          <mxGeometry x="-0.0797" y="-1" relative="1" as="geometry">
            <mxPoint as="offset" />
          </mxGeometry>
        </mxCell>
        <mxCell id="WdyAgNhW-mXzaDmg8RnA-33" value="&lt;font face=&quot;Verdana&quot;&gt;创建&lt;/font&gt;" style="ellipse;whiteSpace=wrap;html=1;fontFamily=Georgia;fillColor=#fff2cc;strokeColor=#d6b656;" vertex="1" parent="1">
          <mxGeometry x="20" y="400" width="100" height="66.67" as="geometry" />
        </mxCell>
        <mxCell id="WdyAgNhW-mXzaDmg8RnA-34" value="&lt;font face=&quot;Verdana&quot;&gt;结束&lt;/font&gt;" style="ellipse;whiteSpace=wrap;html=1;fontFamily=Georgia;fillColor=#fff2cc;strokeColor=#d6b656;" vertex="1" parent="1">
          <mxGeometry x="620" y="400" width="100" height="66.67" as="geometry" />
        </mxCell>
        <mxCell id="WdyAgNhW-mXzaDmg8RnA-45" value="" style="rounded=0;whiteSpace=wrap;html=1;" vertex="1" parent="1">
          <mxGeometry x="140" y="670" width="130" height="260" as="geometry" />
        </mxCell>
        <mxCell id="WdyAgNhW-mXzaDmg8RnA-46" value="main()" style="rounded=0;whiteSpace=wrap;html=1;fillColor=#ffe6cc;strokeColor=#d79b00;" vertex="1" parent="1">
          <mxGeometry x="140" y="700" width="130" height="50" as="geometry" />
        </mxCell>
        <mxCell id="WdyAgNhW-mXzaDmg8RnA-47" value="func1()" style="rounded=0;whiteSpace=wrap;html=1;fillColor=#ffe6cc;strokeColor=#d79b00;" vertex="1" parent="1">
          <mxGeometry x="140" y="775" width="130" height="50" as="geometry" />
        </mxCell>
        <mxCell id="WdyAgNhW-mXzaDmg8RnA-48" value="栈" style="text;html=1;align=center;verticalAlign=middle;whiteSpace=wrap;rounded=0;" vertex="1" parent="1">
          <mxGeometry x="70" y="670" width="60" height="30" as="geometry" />
        </mxCell>
        <mxCell id="WdyAgNhW-mXzaDmg8RnA-49" value="" style="shape=flexArrow;endArrow=classic;html=1;rounded=0;" edge="1" parent="1">
          <mxGeometry width="50" height="50" relative="1" as="geometry">
            <mxPoint x="305" y="670" as="sourcePoint" />
            <mxPoint x="305" y="930" as="targetPoint" />
          </mxGeometry>
        </mxCell>
        <mxCell id="WdyAgNhW-mXzaDmg8RnA-50" value="低地址" style="text;html=1;align=center;verticalAlign=middle;whiteSpace=wrap;rounded=0;" vertex="1" parent="1">
          <mxGeometry x="330" y="870" width="60" height="30" as="geometry" />
        </mxCell>
        <mxCell id="WdyAgNhW-mXzaDmg8RnA-53" value="func2()" style="rounded=0;whiteSpace=wrap;html=1;fillColor=#ffe6cc;strokeColor=#d79b00;sketch=1;curveFitting=1;jiggle=2;" vertex="1" parent="1">
          <mxGeometry x="140" y="850" width="130" height="50" as="geometry" />
        </mxCell>
        <mxCell id="WdyAgNhW-mXzaDmg8RnA-54" value="新开辟的函数栈帧是向栈区低地址开辟&lt;br&gt;符合栈区向低地址扩张&lt;br&gt;&lt;br&gt;但是函数栈帧内部如何为局部变量分配地址，这可是没有规定，因此由编译器决定" style="text;html=1;align=left;verticalAlign=top;whiteSpace=wrap;rounded=0;" vertex="1" parent="1">
          <mxGeometry x="390" y="700" width="230" height="110" as="geometry" />
        </mxCell>
      </root>
    </mxGraphModel>
  </diagram>
  <diagram id="f1mAXzt7yV5YMN0dEYzS" name="线程">
    <mxGraphModel dx="985" dy="580" grid="1" gridSize="10" guides="1" tooltips="1" connect="1" arrows="1" fold="1" page="1" pageScale="1" pageWidth="827" pageHeight="1169" math="0" shadow="0">
      <root>
        <mxCell id="0" />
        <mxCell id="1" parent="0" />
        <mxCell id="KVLDHFj9TB4PZf_5SVNA-1" value="" style="rounded=0;whiteSpace=wrap;html=1;" parent="1" vertex="1">
          <mxGeometry x="600" y="120" width="110" height="490" as="geometry" />
        </mxCell>
        <mxCell id="KVLDHFj9TB4PZf_5SVNA-2" value="内核空间" style="rounded=0;whiteSpace=wrap;html=1;fillColor=#f8cecc;strokeColor=#b85450;" parent="1" vertex="1">
          <mxGeometry x="600" y="120" width="110" height="60" as="geometry" />
        </mxCell>
        <mxCell id="KVLDHFj9TB4PZf_5SVNA-3" value="环境变量" style="rounded=0;whiteSpace=wrap;html=1;fillColor=#dae8fc;strokeColor=#6c8ebf;" parent="1" vertex="1">
          <mxGeometry x="600" y="180" width="110" height="30" as="geometry" />
        </mxCell>
        <mxCell id="KVLDHFj9TB4PZf_5SVNA-4" value="命令行参数" style="rounded=0;whiteSpace=wrap;html=1;fillColor=#dae8fc;strokeColor=#6c8ebf;" parent="1" vertex="1">
          <mxGeometry x="600" y="210" width="110" height="30" as="geometry" />
        </mxCell>
        <mxCell id="KVLDHFj9TB4PZf_5SVNA-5" value="栈" style="rounded=0;whiteSpace=wrap;html=1;fillColor=#d5e8d4;strokeColor=#82b366;" parent="1" vertex="1">
          <mxGeometry x="600" y="240" width="110" height="50" as="geometry" />
        </mxCell>
        <mxCell id="KVLDHFj9TB4PZf_5SVNA-6" value="共享区" style="rounded=0;whiteSpace=wrap;html=1;fillColor=#fff2cc;strokeColor=#d6b656;" parent="1" vertex="1">
          <mxGeometry x="600" y="330" width="110" height="50" as="geometry" />
        </mxCell>
        <mxCell id="KVLDHFj9TB4PZf_5SVNA-7" value="堆" style="rounded=0;whiteSpace=wrap;html=1;fillColor=#ffe6cc;strokeColor=#d79b00;" parent="1" vertex="1">
          <mxGeometry x="600" y="420" width="110" height="50" as="geometry" />
        </mxCell>
        <mxCell id="KVLDHFj9TB4PZf_5SVNA-8" value="" style="shape=flexArrow;endArrow=classic;html=1;rounded=0;endWidth=6.8965517241379315;endSize=2.5310344827586206;" parent="1" edge="1">
          <mxGeometry width="50" height="50" relative="1" as="geometry">
            <mxPoint x="654.31" y="290" as="sourcePoint" />
            <mxPoint x="654" y="320" as="targetPoint" />
            <Array as="points">
              <mxPoint x="654" y="310" />
            </Array>
          </mxGeometry>
        </mxCell>
        <mxCell id="KVLDHFj9TB4PZf_5SVNA-9" value="" style="shape=flexArrow;endArrow=classic;html=1;rounded=0;endWidth=6.8965517241379315;endSize=2.5310344827586206;" parent="1" edge="1">
          <mxGeometry width="50" height="50" relative="1" as="geometry">
            <mxPoint x="655" y="420" as="sourcePoint" />
            <mxPoint x="655" y="390" as="targetPoint" />
            <Array as="points">
              <mxPoint x="655" y="380" />
            </Array>
          </mxGeometry>
        </mxCell>
        <mxCell id="KVLDHFj9TB4PZf_5SVNA-10" value="未初始化数据区" style="rounded=0;whiteSpace=wrap;html=1;fillColor=#fad9d5;strokeColor=#ae4132;" parent="1" vertex="1">
          <mxGeometry x="600" y="490" width="110" height="30" as="geometry" />
        </mxCell>
        <mxCell id="KVLDHFj9TB4PZf_5SVNA-11" value="已初始化数据区" style="rounded=0;whiteSpace=wrap;html=1;fillColor=#fad9d5;strokeColor=#ae4132;" parent="1" vertex="1">
          <mxGeometry x="600" y="520" width="110" height="30" as="geometry" />
        </mxCell>
        <mxCell id="KVLDHFj9TB4PZf_5SVNA-12" value="常量区" style="rounded=0;whiteSpace=wrap;html=1;fillColor=#e1d5e7;strokeColor=#9673a6;" parent="1" vertex="1">
          <mxGeometry x="600" y="550" width="110" height="30" as="geometry" />
        </mxCell>
        <mxCell id="KVLDHFj9TB4PZf_5SVNA-13" value="代码段" style="rounded=0;whiteSpace=wrap;html=1;fillColor=#fad7ac;strokeColor=#b46504;" parent="1" vertex="1">
          <mxGeometry x="600" y="580" width="110" height="30" as="geometry" />
        </mxCell>
        <mxCell id="KVLDHFj9TB4PZf_5SVNA-14" value="进程A" style="text;html=1;align=center;verticalAlign=middle;whiteSpace=wrap;rounded=0;" parent="1" vertex="1">
          <mxGeometry x="625" y="80" width="60" height="30" as="geometry" />
        </mxCell>
        <mxCell id="fDR1OtdlsFNK-RNc2l5S-1" value="PCB" style="rounded=0;whiteSpace=wrap;html=1;" parent="1" vertex="1">
          <mxGeometry x="284" y="120" width="130" height="40" as="geometry" />
        </mxCell>
        <mxCell id="fDR1OtdlsFNK-RNc2l5S-3" value="" style="shape=flexArrow;endArrow=classic;startArrow=classic;html=1;rounded=0;" parent="1" edge="1">
          <mxGeometry width="100" height="100" relative="1" as="geometry">
            <mxPoint x="440" y="139.57999999999998" as="sourcePoint" />
            <mxPoint x="580" y="139.57999999999998" as="targetPoint" />
          </mxGeometry>
        </mxCell>
        <mxCell id="fDR1OtdlsFNK-RNc2l5S-4" value="1:1" style="text;html=1;align=center;verticalAlign=middle;whiteSpace=wrap;rounded=0;" parent="1" vertex="1">
          <mxGeometry x="480" y="100" width="60" height="30" as="geometry" />
        </mxCell>
        <mxCell id="fDR1OtdlsFNK-RNc2l5S-5" value="PCB" style="rounded=0;whiteSpace=wrap;html=1;" parent="1" vertex="1">
          <mxGeometry x="284" y="280" width="130" height="40" as="geometry" />
        </mxCell>
        <mxCell id="fDR1OtdlsFNK-RNc2l5S-6" value="PCB" style="rounded=0;whiteSpace=wrap;html=1;" parent="1" vertex="1">
          <mxGeometry x="284" y="345" width="130" height="40" as="geometry" />
        </mxCell>
        <mxCell id="fDR1OtdlsFNK-RNc2l5S-7" value="PCB" style="rounded=0;whiteSpace=wrap;html=1;" parent="1" vertex="1">
          <mxGeometry x="284" y="410" width="130" height="40" as="geometry" />
        </mxCell>
        <mxCell id="fDR1OtdlsFNK-RNc2l5S-8" value="" style="shape=flexArrow;endArrow=classic;startArrow=classic;html=1;rounded=0;" parent="1" edge="1">
          <mxGeometry width="100" height="100" relative="1" as="geometry">
            <mxPoint x="440" y="369.58" as="sourcePoint" />
            <mxPoint x="580" y="369.58" as="targetPoint" />
          </mxGeometry>
        </mxCell>
        <mxCell id="fDR1OtdlsFNK-RNc2l5S-9" value="n:1" style="text;html=1;align=center;verticalAlign=middle;whiteSpace=wrap;rounded=0;" parent="1" vertex="1">
          <mxGeometry x="480" y="330" width="60" height="30" as="geometry" />
        </mxCell>
        <mxCell id="fDR1OtdlsFNK-RNc2l5S-10" value="进程：1个PCB对应一个进程地址空间" style="text;html=1;align=center;verticalAlign=middle;whiteSpace=wrap;rounded=0;" parent="1" vertex="1">
          <mxGeometry x="280" y="180" width="210" height="30" as="geometry" />
        </mxCell>
        <mxCell id="fDR1OtdlsFNK-RNc2l5S-11" value="线程：n个”PCB“对应一个进程地址空间" style="text;html=1;align=center;verticalAlign=middle;whiteSpace=wrap;rounded=0;" parent="1" vertex="1">
          <mxGeometry x="280" y="480" width="210" height="30" as="geometry" />
        </mxCell>
        <mxCell id="fDR1OtdlsFNK-RNc2l5S-12" value="不过这里可不是直接使用PCB的结构体，而是单独创建一个结构体来管理线程。&lt;br&gt;Tthread Control Block&lt;br&gt;TCB" style="text;html=1;align=center;verticalAlign=middle;whiteSpace=wrap;rounded=0;" parent="1" vertex="1">
          <mxGeometry x="270" y="525" width="230" height="80" as="geometry" />
        </mxCell>
        <mxCell id="ldYDjJDg52AmwfIt6Z5a-1" value="" style="rounded=0;whiteSpace=wrap;html=1;fillColor=#ffe6cc;strokeColor=#d79b00;" vertex="1" parent="1">
          <mxGeometry x="284" y="710" width="176" height="240" as="geometry" />
        </mxCell>
        <mxCell id="ldYDjJDg52AmwfIt6Z5a-2" value="" style="rounded=0;whiteSpace=wrap;html=1;fillColor=#ffe6cc;strokeColor=#d79b00;" vertex="1" parent="1">
          <mxGeometry x="468" y="1095" width="76" height="180" as="geometry" />
        </mxCell>
        <mxCell id="ldYDjJDg52AmwfIt6Z5a-3" value="非临界区，可以并发执行代码" style="rounded=0;whiteSpace=wrap;html=1;fillColor=#fff2cc;strokeColor=#d6b656;" vertex="1" parent="1">
          <mxGeometry x="284" y="710" width="176" height="40" as="geometry" />
        </mxCell>
        <mxCell id="ldYDjJDg52AmwfIt6Z5a-4" value="lock" style="rounded=0;whiteSpace=wrap;html=1;fillColor=#dae8fc;strokeColor=#6c8ebf;" vertex="1" parent="1">
          <mxGeometry x="284" y="750" width="176" height="40" as="geometry" />
        </mxCell>
        <mxCell id="ldYDjJDg52AmwfIt6Z5a-5" value="临界区，只允许一个线程执行" style="rounded=0;whiteSpace=wrap;html=1;fillColor=#f8cecc;strokeColor=#b85450;" vertex="1" parent="1">
          <mxGeometry x="284" y="790" width="176" height="80" as="geometry" />
        </mxCell>
        <mxCell id="ldYDjJDg52AmwfIt6Z5a-6" value="unlock" style="rounded=0;whiteSpace=wrap;html=1;fillColor=#dae8fc;strokeColor=#6c8ebf;" vertex="1" parent="1">
          <mxGeometry x="284" y="870" width="176" height="40" as="geometry" />
        </mxCell>
        <mxCell id="ldYDjJDg52AmwfIt6Z5a-7" value="非临界区，可以并发执行代码" style="rounded=0;whiteSpace=wrap;html=1;fillColor=#fff2cc;strokeColor=#d6b656;" vertex="1" parent="1">
          <mxGeometry x="284" y="910" width="176" height="40" as="geometry" />
        </mxCell>
        <mxCell id="ldYDjJDg52AmwfIt6Z5a-10" value="" style="ellipse;whiteSpace=wrap;html=1;aspect=fixed;" vertex="1" parent="1">
          <mxGeometry x="635" y="1160" width="30" height="30" as="geometry" />
        </mxCell>
        <mxCell id="ldYDjJDg52AmwfIt6Z5a-23" style="edgeStyle=orthogonalEdgeStyle;rounded=0;orthogonalLoop=1;jettySize=auto;html=1;exitX=0;exitY=0.5;exitDx=0;exitDy=0;" edge="1" parent="1" source="ldYDjJDg52AmwfIt6Z5a-11">
          <mxGeometry relative="1" as="geometry">
            <mxPoint x="560" y="1175.1724137931035" as="targetPoint" />
          </mxGeometry>
        </mxCell>
        <mxCell id="ldYDjJDg52AmwfIt6Z5a-11" value="" style="ellipse;whiteSpace=wrap;html=1;aspect=fixed;" vertex="1" parent="1">
          <mxGeometry x="590" y="1160" width="30" height="30" as="geometry" />
        </mxCell>
        <mxCell id="ldYDjJDg52AmwfIt6Z5a-12" value="" style="ellipse;whiteSpace=wrap;html=1;aspect=fixed;" vertex="1" parent="1">
          <mxGeometry x="685" y="1160" width="30" height="30" as="geometry" />
        </mxCell>
        <mxCell id="ldYDjJDg52AmwfIt6Z5a-13" value="" style="ellipse;whiteSpace=wrap;html=1;aspect=fixed;" vertex="1" parent="1">
          <mxGeometry x="735" y="1160" width="30" height="30" as="geometry" />
        </mxCell>
        <mxCell id="ldYDjJDg52AmwfIt6Z5a-15" value="" style="ellipse;whiteSpace=wrap;html=1;aspect=fixed;" vertex="1" parent="1">
          <mxGeometry x="334" y="1160" width="30" height="30" as="geometry" />
        </mxCell>
        <mxCell id="ldYDjJDg52AmwfIt6Z5a-16" value="锁" style="text;html=1;align=center;verticalAlign=middle;whiteSpace=wrap;rounded=0;" vertex="1" parent="1">
          <mxGeometry x="476" y="1065" width="60" height="30" as="geometry" />
        </mxCell>
        <mxCell id="ldYDjJDg52AmwfIt6Z5a-17" value="解锁" style="text;html=1;align=center;verticalAlign=middle;whiteSpace=wrap;rounded=0;" vertex="1" parent="1">
          <mxGeometry x="380" y="1170" width="60" height="30" as="geometry" />
        </mxCell>
        <mxCell id="ldYDjJDg52AmwfIt6Z5a-18" style="edgeStyle=orthogonalEdgeStyle;rounded=0;orthogonalLoop=1;jettySize=auto;html=1;exitX=1;exitY=0.5;exitDx=0;exitDy=0;entryX=-0.008;entryY=0.446;entryDx=0;entryDy=0;entryPerimeter=0;" edge="1" parent="1" source="ldYDjJDg52AmwfIt6Z5a-15" target="ldYDjJDg52AmwfIt6Z5a-2">
          <mxGeometry relative="1" as="geometry">
            <mxPoint x="460" y="1170" as="targetPoint" />
          </mxGeometry>
        </mxCell>
        <mxCell id="ldYDjJDg52AmwfIt6Z5a-19" value="排队领锁" style="text;html=1;align=center;verticalAlign=middle;whiteSpace=wrap;rounded=0;" vertex="1" parent="1">
          <mxGeometry x="610" y="1220" width="105" height="30" as="geometry" />
        </mxCell>
        <mxCell id="ldYDjJDg52AmwfIt6Z5a-20" value="" style="endArrow=none;html=1;rounded=0;" edge="1" parent="1">
          <mxGeometry width="50" height="50" relative="1" as="geometry">
            <mxPoint x="590" y="1140" as="sourcePoint" />
            <mxPoint x="765" y="1140" as="targetPoint" />
          </mxGeometry>
        </mxCell>
        <mxCell id="ldYDjJDg52AmwfIt6Z5a-21" value="" style="endArrow=none;html=1;rounded=0;" edge="1" parent="1">
          <mxGeometry width="50" height="50" relative="1" as="geometry">
            <mxPoint x="590" y="1210" as="sourcePoint" />
            <mxPoint x="765" y="1210" as="targetPoint" />
          </mxGeometry>
        </mxCell>
        <mxCell id="ldYDjJDg52AmwfIt6Z5a-22" value="条件变量" style="text;html=1;align=center;verticalAlign=middle;whiteSpace=wrap;rounded=0;" vertex="1" parent="1">
          <mxGeometry x="550" y="1110" width="60" height="30" as="geometry" />
        </mxCell>
      </root>
    </mxGraphModel>
  </diagram>
  <diagram id="qqpEA9WXnvkRVV65vLz4" name="进程间通信">
    <mxGraphModel dx="985" dy="580" grid="1" gridSize="10" guides="1" tooltips="1" connect="1" arrows="1" fold="1" page="1" pageScale="1" pageWidth="827" pageHeight="1169" math="0" shadow="0">
      <root>
        <mxCell id="0" />
        <mxCell id="1" parent="0" />
        <mxCell id="2YhrxbwDY9e5HdX4bdHf-1" value="" style="rounded=0;whiteSpace=wrap;html=1;" vertex="1" parent="1">
          <mxGeometry x="90" y="100" width="525" height="220" as="geometry" />
        </mxCell>
        <mxCell id="2YhrxbwDY9e5HdX4bdHf-2" value="进程PCB" style="text;html=1;align=center;verticalAlign=middle;whiteSpace=wrap;rounded=0;" vertex="1" parent="1">
          <mxGeometry x="110" y="160" width="60" height="30" as="geometry" />
        </mxCell>
        <mxCell id="2YhrxbwDY9e5HdX4bdHf-3" value="" style="group;fillColor=#ffe6cc;strokeColor=#d79b00;" vertex="1" connectable="0" parent="1">
          <mxGeometry x="265" y="170" width="50" height="120" as="geometry" />
        </mxCell>
        <mxCell id="2YhrxbwDY9e5HdX4bdHf-4" value="" style="rounded=0;whiteSpace=wrap;html=1;" vertex="1" parent="2YhrxbwDY9e5HdX4bdHf-3">
          <mxGeometry width="50" height="120" as="geometry" />
        </mxCell>
        <mxCell id="2YhrxbwDY9e5HdX4bdHf-5" value="" style="rounded=0;whiteSpace=wrap;html=1;" vertex="1" parent="2YhrxbwDY9e5HdX4bdHf-3">
          <mxGeometry width="50" height="20" as="geometry" />
        </mxCell>
        <mxCell id="2YhrxbwDY9e5HdX4bdHf-6" value="" style="rounded=0;whiteSpace=wrap;html=1;" vertex="1" parent="2YhrxbwDY9e5HdX4bdHf-3">
          <mxGeometry y="20" width="50" height="20" as="geometry" />
        </mxCell>
        <mxCell id="2YhrxbwDY9e5HdX4bdHf-7" value="" style="rounded=0;whiteSpace=wrap;html=1;" vertex="1" parent="2YhrxbwDY9e5HdX4bdHf-3">
          <mxGeometry y="40" width="50" height="20" as="geometry" />
        </mxCell>
        <mxCell id="2YhrxbwDY9e5HdX4bdHf-8" value="" style="rounded=0;whiteSpace=wrap;html=1;" vertex="1" parent="2YhrxbwDY9e5HdX4bdHf-3">
          <mxGeometry y="60" width="50" height="20" as="geometry" />
        </mxCell>
        <mxCell id="2YhrxbwDY9e5HdX4bdHf-9" value="" style="rounded=0;whiteSpace=wrap;html=1;" vertex="1" parent="2YhrxbwDY9e5HdX4bdHf-3">
          <mxGeometry y="80" width="50" height="20" as="geometry" />
        </mxCell>
        <mxCell id="2YhrxbwDY9e5HdX4bdHf-10" value="" style="edgeStyle=orthogonalEdgeStyle;rounded=0;orthogonalLoop=1;jettySize=auto;html=1;" edge="1" parent="1" source="2YhrxbwDY9e5HdX4bdHf-11" target="2YhrxbwDY9e5HdX4bdHf-5">
          <mxGeometry relative="1" as="geometry" />
        </mxCell>
        <mxCell id="2YhrxbwDY9e5HdX4bdHf-11" value="task_struct" style="rounded=0;whiteSpace=wrap;html=1;fillColor=#dae8fc;strokeColor=#6c8ebf;" vertex="1" parent="1">
          <mxGeometry x="105" y="130" width="70" height="30" as="geometry" />
        </mxCell>
        <mxCell id="2YhrxbwDY9e5HdX4bdHf-12" value="struct file* fd_array[]" style="text;html=1;align=center;verticalAlign=middle;whiteSpace=wrap;rounded=0;" vertex="1" parent="1">
          <mxGeometry x="185" y="120" width="110" height="30" as="geometry" />
        </mxCell>
        <mxCell id="2YhrxbwDY9e5HdX4bdHf-13" style="edgeStyle=orthogonalEdgeStyle;rounded=0;orthogonalLoop=1;jettySize=auto;html=1;exitX=1;exitY=0.5;exitDx=0;exitDy=0;" edge="1" parent="1" source="2YhrxbwDY9e5HdX4bdHf-14" target="2YhrxbwDY9e5HdX4bdHf-15">
          <mxGeometry relative="1" as="geometry" />
        </mxCell>
        <mxCell id="2YhrxbwDY9e5HdX4bdHf-14" value="struc file" style="rounded=0;whiteSpace=wrap;html=1;fillColor=#ffe6cc;strokeColor=#d79b00;" vertex="1" parent="1">
          <mxGeometry x="380" y="185" width="70" height="30" as="geometry" />
        </mxCell>
        <mxCell id="2YhrxbwDY9e5HdX4bdHf-15" value="内核缓存区" style="rounded=0;whiteSpace=wrap;html=1;fillColor=#f8cecc;strokeColor=#b85450;" vertex="1" parent="1">
          <mxGeometry x="493" y="250" width="90" height="29" as="geometry" />
        </mxCell>
        <mxCell id="2YhrxbwDY9e5HdX4bdHf-16" value="" style="rounded=0;whiteSpace=wrap;html=1;" vertex="1" parent="1">
          <mxGeometry x="635" y="100" width="110" height="220" as="geometry" />
        </mxCell>
        <mxCell id="2YhrxbwDY9e5HdX4bdHf-17" value="内核空间" style="text;html=1;align=center;verticalAlign=middle;whiteSpace=wrap;rounded=0;" vertex="1" parent="1">
          <mxGeometry x="508" y="100" width="60" height="30" as="geometry" />
        </mxCell>
        <mxCell id="2YhrxbwDY9e5HdX4bdHf-18" value="外存（如磁盘）" style="text;html=1;align=center;verticalAlign=middle;whiteSpace=wrap;rounded=0;" vertex="1" parent="1">
          <mxGeometry x="645" y="100" width="90" height="30" as="geometry" />
        </mxCell>
        <mxCell id="2YhrxbwDY9e5HdX4bdHf-19" value="" style="rounded=0;whiteSpace=wrap;html=1;fillColor=#d5e8d4;strokeColor=#82b366;" vertex="1" parent="1">
          <mxGeometry x="655" y="150" width="70" height="30" as="geometry" />
        </mxCell>
        <mxCell id="2YhrxbwDY9e5HdX4bdHf-20" value="" style="endArrow=classic;startArrow=classic;html=1;rounded=0;entryX=0;entryY=0.5;entryDx=0;entryDy=0;exitX=1;exitY=0.5;exitDx=0;exitDy=0;" edge="1" parent="1" source="2YhrxbwDY9e5HdX4bdHf-15" target="2YhrxbwDY9e5HdX4bdHf-19">
          <mxGeometry width="50" height="50" relative="1" as="geometry">
            <mxPoint x="595" y="230" as="sourcePoint" />
            <mxPoint x="645" y="180" as="targetPoint" />
          </mxGeometry>
        </mxCell>
        <mxCell id="2YhrxbwDY9e5HdX4bdHf-21" value="struct address_space* f_mapping" style="text;html=1;align=center;verticalAlign=middle;whiteSpace=wrap;rounded=0;" vertex="1" parent="1">
          <mxGeometry x="419" y="160" width="200" height="30" as="geometry" />
        </mxCell>
        <mxCell id="2YhrxbwDY9e5HdX4bdHf-22" style="edgeStyle=orthogonalEdgeStyle;rounded=0;orthogonalLoop=1;jettySize=auto;html=1;exitX=1;exitY=0.75;exitDx=0;exitDy=0;entryX=0;entryY=0.5;entryDx=0;entryDy=0;" edge="1" parent="1" source="2YhrxbwDY9e5HdX4bdHf-8" target="2YhrxbwDY9e5HdX4bdHf-14">
          <mxGeometry relative="1" as="geometry" />
        </mxCell>
        <mxCell id="2YhrxbwDY9e5HdX4bdHf-23" value="" style="rounded=0;whiteSpace=wrap;html=1;" vertex="1" parent="1">
          <mxGeometry x="90" y="400" width="525" height="220" as="geometry" />
        </mxCell>
        <mxCell id="2YhrxbwDY9e5HdX4bdHf-24" value="进程PCB" style="text;html=1;align=center;verticalAlign=middle;whiteSpace=wrap;rounded=0;" vertex="1" parent="1">
          <mxGeometry x="110" y="460" width="60" height="30" as="geometry" />
        </mxCell>
        <mxCell id="2YhrxbwDY9e5HdX4bdHf-25" value="" style="group;fillColor=#ffe6cc;strokeColor=#d79b00;" vertex="1" connectable="0" parent="1">
          <mxGeometry x="265" y="470" width="50" height="120" as="geometry" />
        </mxCell>
        <mxCell id="2YhrxbwDY9e5HdX4bdHf-26" value="" style="rounded=0;whiteSpace=wrap;html=1;" vertex="1" parent="2YhrxbwDY9e5HdX4bdHf-25">
          <mxGeometry width="50" height="120" as="geometry" />
        </mxCell>
        <mxCell id="2YhrxbwDY9e5HdX4bdHf-27" value="" style="rounded=0;whiteSpace=wrap;html=1;" vertex="1" parent="2YhrxbwDY9e5HdX4bdHf-25">
          <mxGeometry width="50" height="20" as="geometry" />
        </mxCell>
        <mxCell id="2YhrxbwDY9e5HdX4bdHf-28" value="" style="rounded=0;whiteSpace=wrap;html=1;" vertex="1" parent="2YhrxbwDY9e5HdX4bdHf-25">
          <mxGeometry y="20" width="50" height="20" as="geometry" />
        </mxCell>
        <mxCell id="2YhrxbwDY9e5HdX4bdHf-29" value="" style="rounded=0;whiteSpace=wrap;html=1;" vertex="1" parent="2YhrxbwDY9e5HdX4bdHf-25">
          <mxGeometry y="40" width="50" height="20" as="geometry" />
        </mxCell>
        <mxCell id="2YhrxbwDY9e5HdX4bdHf-30" value="" style="rounded=0;whiteSpace=wrap;html=1;" vertex="1" parent="2YhrxbwDY9e5HdX4bdHf-25">
          <mxGeometry y="60" width="50" height="20" as="geometry" />
        </mxCell>
        <mxCell id="2YhrxbwDY9e5HdX4bdHf-31" value="" style="rounded=0;whiteSpace=wrap;html=1;" vertex="1" parent="2YhrxbwDY9e5HdX4bdHf-25">
          <mxGeometry y="80" width="50" height="20" as="geometry" />
        </mxCell>
        <mxCell id="2YhrxbwDY9e5HdX4bdHf-32" value="" style="edgeStyle=orthogonalEdgeStyle;rounded=0;orthogonalLoop=1;jettySize=auto;html=1;" edge="1" source="2YhrxbwDY9e5HdX4bdHf-33" target="2YhrxbwDY9e5HdX4bdHf-27" parent="1">
          <mxGeometry relative="1" as="geometry" />
        </mxCell>
        <mxCell id="2YhrxbwDY9e5HdX4bdHf-33" value="task_struct" style="rounded=0;whiteSpace=wrap;html=1;fillColor=#dae8fc;strokeColor=#6c8ebf;" vertex="1" parent="1">
          <mxGeometry x="105" y="430" width="70" height="30" as="geometry" />
        </mxCell>
        <mxCell id="2YhrxbwDY9e5HdX4bdHf-34" value="struct file* fd_array[]" style="text;html=1;align=center;verticalAlign=middle;whiteSpace=wrap;rounded=0;" vertex="1" parent="1">
          <mxGeometry x="185" y="420" width="110" height="30" as="geometry" />
        </mxCell>
        <mxCell id="2YhrxbwDY9e5HdX4bdHf-35" style="edgeStyle=orthogonalEdgeStyle;rounded=0;orthogonalLoop=1;jettySize=auto;html=1;exitX=1;exitY=0.5;exitDx=0;exitDy=0;" edge="1" source="2YhrxbwDY9e5HdX4bdHf-36" target="2YhrxbwDY9e5HdX4bdHf-37" parent="1">
          <mxGeometry relative="1" as="geometry" />
        </mxCell>
        <mxCell id="2YhrxbwDY9e5HdX4bdHf-36" value="struc file" style="rounded=0;whiteSpace=wrap;html=1;fillColor=#ffe6cc;strokeColor=#d79b00;" vertex="1" parent="1">
          <mxGeometry x="380" y="485" width="70" height="30" as="geometry" />
        </mxCell>
        <mxCell id="2YhrxbwDY9e5HdX4bdHf-37" value="内核缓存区" style="rounded=0;whiteSpace=wrap;html=1;fillColor=#f8cecc;strokeColor=#b85450;" vertex="1" parent="1">
          <mxGeometry x="493" y="550" width="90" height="29" as="geometry" />
        </mxCell>
        <mxCell id="2YhrxbwDY9e5HdX4bdHf-39" value="内核空间" style="text;html=1;align=center;verticalAlign=middle;whiteSpace=wrap;rounded=0;" vertex="1" parent="1">
          <mxGeometry x="508" y="400" width="60" height="30" as="geometry" />
        </mxCell>
        <mxCell id="2YhrxbwDY9e5HdX4bdHf-43" value="struct address_space* f_mapping" style="text;html=1;align=center;verticalAlign=middle;whiteSpace=wrap;rounded=0;" vertex="1" parent="1">
          <mxGeometry x="419" y="460" width="200" height="30" as="geometry" />
        </mxCell>
        <mxCell id="2YhrxbwDY9e5HdX4bdHf-44" style="edgeStyle=orthogonalEdgeStyle;rounded=0;orthogonalLoop=1;jettySize=auto;html=1;exitX=1;exitY=0.75;exitDx=0;exitDy=0;entryX=0;entryY=0.5;entryDx=0;entryDy=0;" edge="1" source="2YhrxbwDY9e5HdX4bdHf-30" target="2YhrxbwDY9e5HdX4bdHf-36" parent="1">
          <mxGeometry relative="1" as="geometry" />
        </mxCell>
        <mxCell id="2YhrxbwDY9e5HdX4bdHf-64" value="写端" style="edgeLabel;html=1;align=center;verticalAlign=middle;resizable=0;points=[];" vertex="1" connectable="0" parent="2YhrxbwDY9e5HdX4bdHf-44">
          <mxGeometry x="0.0204" y="-2" relative="1" as="geometry">
            <mxPoint as="offset" />
          </mxGeometry>
        </mxCell>
        <mxCell id="2YhrxbwDY9e5HdX4bdHf-45" value="" style="rounded=0;whiteSpace=wrap;html=1;" vertex="1" parent="1">
          <mxGeometry x="90" y="640" width="525" height="220" as="geometry" />
        </mxCell>
        <mxCell id="2YhrxbwDY9e5HdX4bdHf-46" value="进程PCB" style="text;html=1;align=center;verticalAlign=middle;whiteSpace=wrap;rounded=0;" vertex="1" parent="1">
          <mxGeometry x="110" y="700" width="60" height="30" as="geometry" />
        </mxCell>
        <mxCell id="2YhrxbwDY9e5HdX4bdHf-47" value="" style="group;fillColor=#ffe6cc;strokeColor=#d79b00;" vertex="1" connectable="0" parent="1">
          <mxGeometry x="265" y="710" width="50" height="120" as="geometry" />
        </mxCell>
        <mxCell id="2YhrxbwDY9e5HdX4bdHf-48" value="" style="rounded=0;whiteSpace=wrap;html=1;" vertex="1" parent="2YhrxbwDY9e5HdX4bdHf-47">
          <mxGeometry width="50" height="120" as="geometry" />
        </mxCell>
        <mxCell id="2YhrxbwDY9e5HdX4bdHf-49" value="" style="rounded=0;whiteSpace=wrap;html=1;" vertex="1" parent="2YhrxbwDY9e5HdX4bdHf-47">
          <mxGeometry width="50" height="20" as="geometry" />
        </mxCell>
        <mxCell id="2YhrxbwDY9e5HdX4bdHf-50" value="" style="rounded=0;whiteSpace=wrap;html=1;" vertex="1" parent="2YhrxbwDY9e5HdX4bdHf-47">
          <mxGeometry y="20" width="50" height="20" as="geometry" />
        </mxCell>
        <mxCell id="2YhrxbwDY9e5HdX4bdHf-51" value="" style="rounded=0;whiteSpace=wrap;html=1;" vertex="1" parent="2YhrxbwDY9e5HdX4bdHf-47">
          <mxGeometry y="40" width="50" height="20" as="geometry" />
        </mxCell>
        <mxCell id="2YhrxbwDY9e5HdX4bdHf-52" value="" style="rounded=0;whiteSpace=wrap;html=1;" vertex="1" parent="2YhrxbwDY9e5HdX4bdHf-47">
          <mxGeometry y="60" width="50" height="20" as="geometry" />
        </mxCell>
        <mxCell id="2YhrxbwDY9e5HdX4bdHf-53" value="" style="rounded=0;whiteSpace=wrap;html=1;" vertex="1" parent="2YhrxbwDY9e5HdX4bdHf-47">
          <mxGeometry y="80" width="50" height="20" as="geometry" />
        </mxCell>
        <mxCell id="2YhrxbwDY9e5HdX4bdHf-54" value="" style="edgeStyle=orthogonalEdgeStyle;rounded=0;orthogonalLoop=1;jettySize=auto;html=1;" edge="1" source="2YhrxbwDY9e5HdX4bdHf-55" target="2YhrxbwDY9e5HdX4bdHf-49" parent="1">
          <mxGeometry relative="1" as="geometry" />
        </mxCell>
        <mxCell id="2YhrxbwDY9e5HdX4bdHf-55" value="task_struct" style="rounded=0;whiteSpace=wrap;html=1;fillColor=#dae8fc;strokeColor=#6c8ebf;" vertex="1" parent="1">
          <mxGeometry x="105" y="670" width="70" height="30" as="geometry" />
        </mxCell>
        <mxCell id="2YhrxbwDY9e5HdX4bdHf-56" value="struct file* fd_array[]" style="text;html=1;align=center;verticalAlign=middle;whiteSpace=wrap;rounded=0;" vertex="1" parent="1">
          <mxGeometry x="185" y="660" width="110" height="30" as="geometry" />
        </mxCell>
        <mxCell id="2YhrxbwDY9e5HdX4bdHf-57" style="edgeStyle=orthogonalEdgeStyle;rounded=0;orthogonalLoop=1;jettySize=auto;html=1;exitX=1;exitY=0.5;exitDx=0;exitDy=0;" edge="1" source="2YhrxbwDY9e5HdX4bdHf-58" target="2YhrxbwDY9e5HdX4bdHf-59" parent="1">
          <mxGeometry relative="1" as="geometry" />
        </mxCell>
        <mxCell id="2YhrxbwDY9e5HdX4bdHf-63" style="edgeStyle=orthogonalEdgeStyle;rounded=0;orthogonalLoop=1;jettySize=auto;html=1;exitX=0;exitY=0.5;exitDx=0;exitDy=0;entryX=1;entryY=0.5;entryDx=0;entryDy=0;" edge="1" parent="1" source="2YhrxbwDY9e5HdX4bdHf-58" target="2YhrxbwDY9e5HdX4bdHf-53">
          <mxGeometry relative="1" as="geometry" />
        </mxCell>
        <mxCell id="2YhrxbwDY9e5HdX4bdHf-65" value="读端" style="edgeLabel;html=1;align=center;verticalAlign=middle;resizable=0;points=[];" vertex="1" connectable="0" parent="2YhrxbwDY9e5HdX4bdHf-63">
          <mxGeometry x="-0.0494" y="-4" relative="1" as="geometry">
            <mxPoint as="offset" />
          </mxGeometry>
        </mxCell>
        <mxCell id="2YhrxbwDY9e5HdX4bdHf-58" value="struc file" style="rounded=0;whiteSpace=wrap;html=1;fillColor=#ffe6cc;strokeColor=#d79b00;" vertex="1" parent="1">
          <mxGeometry x="380" y="725" width="70" height="30" as="geometry" />
        </mxCell>
        <mxCell id="2YhrxbwDY9e5HdX4bdHf-59" value="内核缓存区" style="rounded=0;whiteSpace=wrap;html=1;fillColor=#f8cecc;strokeColor=#b85450;" vertex="1" parent="1">
          <mxGeometry x="493" y="790" width="90" height="29" as="geometry" />
        </mxCell>
        <mxCell id="2YhrxbwDY9e5HdX4bdHf-60" value="内核空间" style="text;html=1;align=center;verticalAlign=middle;whiteSpace=wrap;rounded=0;" vertex="1" parent="1">
          <mxGeometry x="508" y="640" width="60" height="30" as="geometry" />
        </mxCell>
        <mxCell id="2YhrxbwDY9e5HdX4bdHf-61" value="struct address_space* f_mapping" style="text;html=1;align=center;verticalAlign=middle;whiteSpace=wrap;rounded=0;" vertex="1" parent="1">
          <mxGeometry x="419" y="700" width="200" height="30" as="geometry" />
        </mxCell>
        <mxCell id="2YhrxbwDY9e5HdX4bdHf-66" value="" style="rounded=0;whiteSpace=wrap;html=1;" vertex="1" parent="1">
          <mxGeometry x="635" y="520" width="110" height="220" as="geometry" />
        </mxCell>
        <mxCell id="2YhrxbwDY9e5HdX4bdHf-68" value="物理内存" style="text;html=1;align=center;verticalAlign=middle;whiteSpace=wrap;rounded=0;" vertex="1" parent="1">
          <mxGeometry x="660" y="520" width="60" height="30" as="geometry" />
        </mxCell>
        <mxCell id="2YhrxbwDY9e5HdX4bdHf-69" value="管道" style="rounded=0;whiteSpace=wrap;html=1;fillColor=#f8cecc;strokeColor=#b85450;" vertex="1" parent="1">
          <mxGeometry x="645" y="611" width="90" height="29" as="geometry" />
        </mxCell>
        <mxCell id="2YhrxbwDY9e5HdX4bdHf-70" style="rounded=0;orthogonalLoop=1;jettySize=auto;html=1;exitX=1;exitY=0.5;exitDx=0;exitDy=0;entryX=0.073;entryY=0.666;entryDx=0;entryDy=0;shape=link;entryPerimeter=0;" edge="1" parent="1" source="2YhrxbwDY9e5HdX4bdHf-37" target="2YhrxbwDY9e5HdX4bdHf-69">
          <mxGeometry relative="1" as="geometry" />
        </mxCell>
        <mxCell id="2YhrxbwDY9e5HdX4bdHf-71" style="rounded=0;orthogonalLoop=1;jettySize=auto;html=1;exitX=1;exitY=0.5;exitDx=0;exitDy=0;entryX=0;entryY=0.5;entryDx=0;entryDy=0;shape=link;" edge="1" parent="1" source="2YhrxbwDY9e5HdX4bdHf-59" target="2YhrxbwDY9e5HdX4bdHf-69">
          <mxGeometry relative="1" as="geometry" />
        </mxCell>
        <mxCell id="2YhrxbwDY9e5HdX4bdHf-72" value="" style="rounded=0;whiteSpace=wrap;html=1;" vertex="1" parent="1">
          <mxGeometry x="130" y="1040" width="110" height="490" as="geometry" />
        </mxCell>
        <mxCell id="8PafbDazpKbWm_H7s7-U-1" value="内核空间" style="rounded=0;whiteSpace=wrap;html=1;fillColor=#f8cecc;strokeColor=#b85450;" vertex="1" parent="1">
          <mxGeometry x="130" y="1040" width="110" height="60" as="geometry" />
        </mxCell>
        <mxCell id="8PafbDazpKbWm_H7s7-U-2" value="环境变量" style="rounded=0;whiteSpace=wrap;html=1;fillColor=#dae8fc;strokeColor=#6c8ebf;" vertex="1" parent="1">
          <mxGeometry x="130" y="1100" width="110" height="30" as="geometry" />
        </mxCell>
        <mxCell id="8PafbDazpKbWm_H7s7-U-3" value="命令行参数" style="rounded=0;whiteSpace=wrap;html=1;fillColor=#dae8fc;strokeColor=#6c8ebf;" vertex="1" parent="1">
          <mxGeometry x="130" y="1130" width="110" height="30" as="geometry" />
        </mxCell>
        <mxCell id="8PafbDazpKbWm_H7s7-U-6" value="栈" style="rounded=0;whiteSpace=wrap;html=1;fillColor=#d5e8d4;strokeColor=#82b366;" vertex="1" parent="1">
          <mxGeometry x="130" y="1160" width="110" height="50" as="geometry" />
        </mxCell>
        <mxCell id="8PafbDazpKbWm_H7s7-U-7" value="共享区" style="rounded=0;whiteSpace=wrap;html=1;fillColor=#fff2cc;strokeColor=#d6b656;" vertex="1" parent="1">
          <mxGeometry x="130" y="1250" width="110" height="50" as="geometry" />
        </mxCell>
        <mxCell id="8PafbDazpKbWm_H7s7-U-8" value="堆" style="rounded=0;whiteSpace=wrap;html=1;fillColor=#ffe6cc;strokeColor=#d79b00;" vertex="1" parent="1">
          <mxGeometry x="130" y="1340" width="110" height="50" as="geometry" />
        </mxCell>
        <mxCell id="8PafbDazpKbWm_H7s7-U-9" value="" style="shape=flexArrow;endArrow=classic;html=1;rounded=0;endWidth=6.8965517241379315;endSize=2.5310344827586206;" edge="1" parent="1">
          <mxGeometry width="50" height="50" relative="1" as="geometry">
            <mxPoint x="184.31" y="1210" as="sourcePoint" />
            <mxPoint x="184" y="1240" as="targetPoint" />
            <Array as="points">
              <mxPoint x="184" y="1230" />
            </Array>
          </mxGeometry>
        </mxCell>
        <mxCell id="8PafbDazpKbWm_H7s7-U-12" value="" style="shape=flexArrow;endArrow=classic;html=1;rounded=0;endWidth=6.8965517241379315;endSize=2.5310344827586206;" edge="1" parent="1">
          <mxGeometry width="50" height="50" relative="1" as="geometry">
            <mxPoint x="185" y="1340" as="sourcePoint" />
            <mxPoint x="185" y="1310" as="targetPoint" />
            <Array as="points">
              <mxPoint x="185" y="1300" />
            </Array>
          </mxGeometry>
        </mxCell>
        <mxCell id="8PafbDazpKbWm_H7s7-U-13" value="未初始化数据区" style="rounded=0;whiteSpace=wrap;html=1;fillColor=#fad9d5;strokeColor=#ae4132;" vertex="1" parent="1">
          <mxGeometry x="130" y="1410" width="110" height="30" as="geometry" />
        </mxCell>
        <mxCell id="8PafbDazpKbWm_H7s7-U-14" value="已初始化数据区" style="rounded=0;whiteSpace=wrap;html=1;fillColor=#fad9d5;strokeColor=#ae4132;" vertex="1" parent="1">
          <mxGeometry x="130" y="1440" width="110" height="30" as="geometry" />
        </mxCell>
        <mxCell id="8PafbDazpKbWm_H7s7-U-15" value="常量区" style="rounded=0;whiteSpace=wrap;html=1;fillColor=#e1d5e7;strokeColor=#9673a6;" vertex="1" parent="1">
          <mxGeometry x="130" y="1470" width="110" height="30" as="geometry" />
        </mxCell>
        <mxCell id="8PafbDazpKbWm_H7s7-U-16" value="代码段" style="rounded=0;whiteSpace=wrap;html=1;fillColor=#fad7ac;strokeColor=#b46504;" vertex="1" parent="1">
          <mxGeometry x="130" y="1500" width="110" height="30" as="geometry" />
        </mxCell>
        <mxCell id="8PafbDazpKbWm_H7s7-U-17" value="" style="rounded=0;whiteSpace=wrap;html=1;" vertex="1" parent="1">
          <mxGeometry x="550" y="1040" width="110" height="490" as="geometry" />
        </mxCell>
        <mxCell id="8PafbDazpKbWm_H7s7-U-18" value="内核空间" style="rounded=0;whiteSpace=wrap;html=1;fillColor=#f8cecc;strokeColor=#b85450;" vertex="1" parent="1">
          <mxGeometry x="550" y="1040" width="110" height="60" as="geometry" />
        </mxCell>
        <mxCell id="8PafbDazpKbWm_H7s7-U-19" value="环境变量" style="rounded=0;whiteSpace=wrap;html=1;fillColor=#dae8fc;strokeColor=#6c8ebf;" vertex="1" parent="1">
          <mxGeometry x="550" y="1100" width="110" height="30" as="geometry" />
        </mxCell>
        <mxCell id="8PafbDazpKbWm_H7s7-U-20" value="命令行参数" style="rounded=0;whiteSpace=wrap;html=1;fillColor=#dae8fc;strokeColor=#6c8ebf;" vertex="1" parent="1">
          <mxGeometry x="550" y="1130" width="110" height="30" as="geometry" />
        </mxCell>
        <mxCell id="8PafbDazpKbWm_H7s7-U-21" value="栈" style="rounded=0;whiteSpace=wrap;html=1;fillColor=#d5e8d4;strokeColor=#82b366;" vertex="1" parent="1">
          <mxGeometry x="550" y="1160" width="110" height="50" as="geometry" />
        </mxCell>
        <mxCell id="8PafbDazpKbWm_H7s7-U-22" value="共享区" style="rounded=0;whiteSpace=wrap;html=1;fillColor=#fff2cc;strokeColor=#d6b656;" vertex="1" parent="1">
          <mxGeometry x="550" y="1250" width="110" height="50" as="geometry" />
        </mxCell>
        <mxCell id="8PafbDazpKbWm_H7s7-U-23" value="堆" style="rounded=0;whiteSpace=wrap;html=1;fillColor=#ffe6cc;strokeColor=#d79b00;" vertex="1" parent="1">
          <mxGeometry x="550" y="1340" width="110" height="50" as="geometry" />
        </mxCell>
        <mxCell id="8PafbDazpKbWm_H7s7-U-24" value="" style="shape=flexArrow;endArrow=classic;html=1;rounded=0;endWidth=6.8965517241379315;endSize=2.5310344827586206;" edge="1" parent="1">
          <mxGeometry width="50" height="50" relative="1" as="geometry">
            <mxPoint x="604.31" y="1210" as="sourcePoint" />
            <mxPoint x="604" y="1240" as="targetPoint" />
            <Array as="points">
              <mxPoint x="604" y="1230" />
            </Array>
          </mxGeometry>
        </mxCell>
        <mxCell id="8PafbDazpKbWm_H7s7-U-25" value="" style="shape=flexArrow;endArrow=classic;html=1;rounded=0;endWidth=6.8965517241379315;endSize=2.5310344827586206;" edge="1" parent="1">
          <mxGeometry width="50" height="50" relative="1" as="geometry">
            <mxPoint x="605" y="1340" as="sourcePoint" />
            <mxPoint x="605" y="1310" as="targetPoint" />
            <Array as="points">
              <mxPoint x="605" y="1300" />
            </Array>
          </mxGeometry>
        </mxCell>
        <mxCell id="8PafbDazpKbWm_H7s7-U-26" value="未初始化数据区" style="rounded=0;whiteSpace=wrap;html=1;fillColor=#fad9d5;strokeColor=#ae4132;" vertex="1" parent="1">
          <mxGeometry x="550" y="1410" width="110" height="30" as="geometry" />
        </mxCell>
        <mxCell id="8PafbDazpKbWm_H7s7-U-27" value="已初始化数据区" style="rounded=0;whiteSpace=wrap;html=1;fillColor=#fad9d5;strokeColor=#ae4132;" vertex="1" parent="1">
          <mxGeometry x="550" y="1440" width="110" height="30" as="geometry" />
        </mxCell>
        <mxCell id="8PafbDazpKbWm_H7s7-U-28" value="常量区" style="rounded=0;whiteSpace=wrap;html=1;fillColor=#e1d5e7;strokeColor=#9673a6;" vertex="1" parent="1">
          <mxGeometry x="550" y="1470" width="110" height="30" as="geometry" />
        </mxCell>
        <mxCell id="8PafbDazpKbWm_H7s7-U-29" value="代码段" style="rounded=0;whiteSpace=wrap;html=1;fillColor=#fad7ac;strokeColor=#b46504;" vertex="1" parent="1">
          <mxGeometry x="550" y="1500" width="110" height="30" as="geometry" />
        </mxCell>
        <mxCell id="8PafbDazpKbWm_H7s7-U-31" style="rounded=0;orthogonalLoop=1;jettySize=auto;html=1;exitX=0;exitY=0.5;exitDx=0;exitDy=0;" edge="1" parent="1" source="8PafbDazpKbWm_H7s7-U-30" target="8PafbDazpKbWm_H7s7-U-7">
          <mxGeometry relative="1" as="geometry" />
        </mxCell>
        <mxCell id="8PafbDazpKbWm_H7s7-U-34" value="映射" style="edgeLabel;html=1;align=center;verticalAlign=middle;resizable=0;points=[];" vertex="1" connectable="0" parent="8PafbDazpKbWm_H7s7-U-31">
          <mxGeometry x="0.0377" y="3" relative="1" as="geometry">
            <mxPoint as="offset" />
          </mxGeometry>
        </mxCell>
        <mxCell id="8PafbDazpKbWm_H7s7-U-32" style="rounded=0;orthogonalLoop=1;jettySize=auto;html=1;exitX=1;exitY=0.5;exitDx=0;exitDy=0;entryX=0;entryY=0.5;entryDx=0;entryDy=0;" edge="1" parent="1" source="8PafbDazpKbWm_H7s7-U-30" target="8PafbDazpKbWm_H7s7-U-22">
          <mxGeometry relative="1" as="geometry" />
        </mxCell>
        <mxCell id="8PafbDazpKbWm_H7s7-U-35" value="映射" style="edgeLabel;html=1;align=center;verticalAlign=middle;resizable=0;points=[];" vertex="1" connectable="0" parent="8PafbDazpKbWm_H7s7-U-32">
          <mxGeometry x="-0.0193" relative="1" as="geometry">
            <mxPoint as="offset" />
          </mxGeometry>
        </mxCell>
        <mxCell id="8PafbDazpKbWm_H7s7-U-30" value="共享内存" style="rounded=0;whiteSpace=wrap;html=1;" vertex="1" parent="1">
          <mxGeometry x="340" y="1280" width="120" height="60" as="geometry" />
        </mxCell>
        <mxCell id="8PafbDazpKbWm_H7s7-U-36" value="进程A" style="text;html=1;align=center;verticalAlign=middle;whiteSpace=wrap;rounded=0;" vertex="1" parent="1">
          <mxGeometry x="155" y="1000" width="60" height="30" as="geometry" />
        </mxCell>
        <mxCell id="8PafbDazpKbWm_H7s7-U-37" value="进程B" style="text;html=1;align=center;verticalAlign=middle;whiteSpace=wrap;rounded=0;" vertex="1" parent="1">
          <mxGeometry x="568" y="1000" width="60" height="30" as="geometry" />
        </mxCell>
      </root>
    </mxGraphModel>
  </diagram>
</mxfile>
